<svg xmlns="http://www.w3.org/2000/svg" xmlns:xlink="http://www.w3.org/1999/xlink" viewBox="0 0 500 500"><defs><clipPath id="freepik--clip-path--inject-3"><path d="M183.84,408.51,173,414.77a3.24,3.24,0,0,1-2.94,0l-13.23-7.54a.89.89,0,0,1,0-1.69l10.84-6.26a3.24,3.24,0,0,1,2.94,0c3.58,2.07,9.64,5.46,13.22,7.54A.89.89,0,0,1,183.84,408.51Z" style="fill:#2FA6F8"></path></clipPath></defs><g id="freepik--Floor--inject-3"><ellipse id="freepik--floor--inject-3" cx="249.81" cy="337.53" rx="238.19" ry="137.52" style="fill:#f5f5f5"></ellipse></g><g id="freepik--Shadows--inject-3"><path id="freepik--Shadow--inject-3" d="M421.52,361.94a1.74,1.74,0,0,0-.15-.26,2,2,0,0,0-.14-.16.9.9,0,0,0-.15-.19l-.18-.17a4.21,4.21,0,0,0-.64-.45L197.57,232.15a8,8,0,0,0-7.18,0L74.51,298.87a3.37,3.37,0,0,0-.42.27s-.11.07-.15.11a2.88,2.88,0,0,0-.6.68,1,1,0,0,0-.1.17,1.31,1.31,0,0,0-.12.28,2.25,2.25,0,0,0-.05.22,1.53,1.53,0,0,0,0,.36,2,2,0,0,0,0,.25,2.29,2.29,0,0,0,.07.28,1.69,1.69,0,0,0,.12.27A3.11,3.11,0,0,0,74.51,303l222.7,128.55a6.79,6.79,0,0,0,2.13.73,10,10,0,0,0,1.46.12,9.87,9.87,0,0,0,1.44-.11,3.55,3.55,0,0,0,.47-.09,6.76,6.76,0,0,0,1.29-.44c.14-.06.26-.14.39-.21l115.87-66.71C421.62,364.06,422,362.94,421.52,361.94Z" style="fill:#e0e0e0"></path><ellipse id="freepik--shadow--inject-3" cx="407.31" cy="298.93" rx="49.53" ry="28.6" style="fill:#e0e0e0"></ellipse><path id="freepik--shadow--inject-3" d="M146.8,447.06a11.68,11.68,0,0,1-5.76-1.43l-99.2-57.26-.09-.07a5.76,5.76,0,0,1-3-4.93,5.91,5.91,0,0,1,3.24-5l65.44-37.78a12.47,12.47,0,0,1,11.52,0L218,397.84a5.91,5.91,0,0,1,3.23,5,5.71,5.71,0,0,1-2.89,4.81,3.94,3.94,0,0,1-.4.26l-49.52,28.57-15.88,9.17a11.68,11.68,0,0,1-5.76,1.42Z" style="fill:#e0e0e0"></path></g><g id="freepik--Cart--inject-3"><g id="freepik--cart--inject-3"><path d="M298.2,308.63a14.86,14.86,0,0,0-6.66-11.7c-1.94-1.14-3.69-1.19-4.93-.38h0l-4.55,2.56,9.55,16.47,4.51-2.56h0C297.38,312.33,298.18,310.82,298.2,308.63Z" style="fill:#37474f"></path><path d="M286.81,299.61a14.91,14.91,0,0,1,6.66,11.7c0,4.3-3.06,6-6.76,3.85a14.91,14.91,0,0,1-6.66-11.7C280.08,299.16,283.11,297.44,286.81,299.61Z" style="fill:#455a64"></path><path d="M284.49,306.06c0-1.68,1-2.45,2.29-1.71a5.43,5.43,0,0,1,2.25,4.37c0,1.68-1,2.44-2.29,1.71A5.48,5.48,0,0,1,284.49,306.06Z" style="fill:#263238"></path><path d="M293.47,311.31a12.35,12.35,0,0,0-.92-4.5L281,300.1a5.78,5.78,0,0,0-.94,3.36c0,.05,0,.1,0,.16l13.4,7.78S293.47,311.34,293.47,311.31Z" style="opacity:0.15"></path><path d="M250.32,345.22a14.41,14.41,0,0,1-7.12-1.28l-63-36.31c-3.81-1.92-8.09-6.9-8.36-11.62l-1.93-44.91,3.51-.2,1.94,44.92c.18,3.2,3.53,7.22,6.41,8.66l63.05,36.32a12.11,12.11,0,0,0,10.58-.61l42-24.22c1-.66,1.59-1.45,1.55-2.12s-.67-1.33-1.74-1.87L229.72,272.8c-3.8-1.91-8.06-6.9-8.33-11.62l-.94-24.91,3.51-.19.94,24.9c.18,3.22,3.53,7.23,6.4,8.67l67.49,39.19c2.25,1.13,3.55,2.84,3.67,4.81s-1,3.88-3.13,5.26l-42,24.22A14.57,14.57,0,0,1,250.32,345.22Z" style="fill:#455a64"></path><path d="M239,344.21a14.86,14.86,0,0,0-6.66-11.7c-1.94-1.14-3.69-1.2-4.92-.38h0l-4.56,2.56,9.55,16.47,4.51-2.56v0C238.16,347.91,239,346.4,239,344.21Z" style="fill:#37474f"></path><path d="M227.59,335.19a14.86,14.86,0,0,1,6.66,11.71c0,4.29-3.05,6-6.76,3.84a14.88,14.88,0,0,1-6.65-11.7C220.87,334.75,223.89,333,227.59,335.19Z" style="fill:#455a64"></path><path d="M225.27,341.64c0-1.68,1-2.45,2.29-1.71a5.41,5.41,0,0,1,2.25,4.37c0,1.67-1,2.44-2.28,1.7A5.44,5.44,0,0,1,225.27,341.64Z" style="fill:#263238"></path><path d="M192.42,317.36a14.86,14.86,0,0,0-6.63-11.71c-1.95-1.14-3.69-1.2-4.93-.39h0l-4.56,2.55,9.52,16.49,4.52-2.56h0C191.6,321.06,192.4,319.55,192.42,317.36Z" style="fill:#37474f"></path><path d="M181.05,308.33A14.88,14.88,0,0,1,187.69,320c0,4.29-3.07,6-6.77,3.83a14.86,14.86,0,0,1-6.63-11.71C174.32,307.86,177.35,306.15,181.05,308.33Z" style="fill:#455a64"></path><path d="M178.72,314.76c0-1.67,1-2.44,2.29-1.7a5.45,5.45,0,0,1,2.25,4.37c0,1.68-1,2.44-2.3,1.71A5.49,5.49,0,0,1,178.72,314.76Z" style="fill:#263238"></path><path d="M162.38,196.68a11.71,11.71,0,0,1,4.49-12.46l41.91-23.69c3.81-2.5,8-.76,9.32,3.59l2.91,9.43-2.88,1.68L215,165.7a3.17,3.17,0,0,0-5-1.75L169.19,187a7.69,7.69,0,0,0-2.93,8l2.46,9.05-3.43,2Z" style="fill:#455a64"></path><polygon points="227.18 242.12 170.88 274.63 253.16 322.13 309.46 289.62 227.18 242.12" style="fill:#2FA6F8"></polygon><polygon points="227.18 242.12 170.88 274.63 253.16 322.13 309.46 289.62 227.18 242.12" style="opacity:0.5"></polygon><polygon points="165.29 206.11 221.01 173.56 227.18 242.12 170.88 274.63 165.29 206.11" style="fill:#2FA6F8"></polygon><polygon points="165.29 206.11 221.01 173.56 227.18 242.12 170.88 274.63 165.29 206.11" style="opacity:0.35000000000000003"></polygon><path d="M221,173.56l6.17,68.56,82.28,47.5,13-57.51Zm28.77,65.92a4.73,4.73,0,0,1-5.9-3.06l-13.6-35.29A4.44,4.44,0,1,1,238.5,198l13.6,35.29A4.72,4.72,0,0,1,249.78,239.48Zm25.69,12.08a4.71,4.71,0,0,1-5.9-3.05L256,213.22a4.44,4.44,0,1,1,8.22-3.17l13.6,35.29A4.71,4.71,0,0,1,275.47,251.56Zm25.69,12.09a4.71,4.71,0,0,1-5.9-3l-13.59-35.29a4.43,4.43,0,1,1,8.21-3.17l13.6,35.29A4.71,4.71,0,0,1,301.16,263.65Z" style="fill:#2FA6F8"></path><path d="M221,173.56l6.17,68.56,82.28,47.5,13-57.51Zm28.77,65.92a4.73,4.73,0,0,1-5.9-3.06l-13.6-35.29A4.44,4.44,0,1,1,238.5,198l13.6,35.29A4.72,4.72,0,0,1,249.78,239.48Zm25.69,12.08a4.71,4.71,0,0,1-5.9-3.05L256,213.22a4.44,4.44,0,1,1,8.22-3.17l13.6,35.29A4.71,4.71,0,0,1,275.47,251.56Zm25.69,12.09a4.71,4.71,0,0,1-5.9-3l-13.59-35.29a4.43,4.43,0,1,1,8.21-3.17l13.6,35.29A4.71,4.71,0,0,1,301.16,263.65Z" style="opacity:0.23"></path><path d="M165.29,206.11l5.59,68.52,82.28,47.5,13-57.5Zm32.48,67.45a4.73,4.73,0,0,1-5.9-3.06l-13.59-35.29a4.43,4.43,0,1,1,8.21-3.16l13.6,35.28A4.72,4.72,0,0,1,197.77,273.56Zm25.69,12.08a4.71,4.71,0,0,1-5.9-3.05L204,247.3a4.44,4.44,0,1,1,8.22-3.17l13.59,35.29A4.71,4.71,0,0,1,223.46,285.64Zm25.69,12.09a4.7,4.7,0,0,1-5.89-3.05l-13.6-35.29a4.44,4.44,0,1,1,8.22-3.17l13.59,35.29A4.71,4.71,0,0,1,249.15,297.73Z" style="fill:#2FA6F8"></path><g style="opacity:0.15"><path d="M165.29,206.11l5.59,68.52,82.28,47.5,13-57.5Zm32.48,67.45a4.73,4.73,0,0,1-5.9-3.06l-13.59-35.29a4.43,4.43,0,1,1,8.21-3.16l13.6,35.28A4.72,4.72,0,0,1,197.77,273.56Zm25.69,12.08a4.71,4.71,0,0,1-5.9-3.05L204,247.3a4.44,4.44,0,1,1,8.22-3.17l13.59,35.29A4.71,4.71,0,0,1,223.46,285.64Zm25.69,12.09a4.7,4.7,0,0,1-5.89-3.05l-13.6-35.29a4.44,4.44,0,1,1,8.22-3.17l13.59,35.29A4.71,4.71,0,0,1,249.15,297.73Z"></path></g><polygon points="266.15 264.63 322.45 232.12 309.46 289.63 253.16 322.13 266.15 264.63" style="fill:#2FA6F8"></polygon><polygon points="266.15 264.63 322.45 232.12 309.46 289.63 253.16 322.13 266.15 264.63" style="opacity:0.4"></polygon></g></g><g id="freepik--Arrow--inject-3"><g id="freepik--arrow--inject-3"><polygon points="286.43 140.48 279.93 144.29 279.95 124.6 276.01 122.33 258.17 132.63 258.14 156.92 247.74 162.81 271.02 177.91 290.37 142.75 286.43 140.48" style="fill:#37474f"></polygon><polygon points="262.11 134.9 262.08 159.19 251.68 165.09 271.02 177.91 290.37 142.75 279.92 148.89 279.95 124.6 262.11 134.9" style="fill:#455a64"></polygon><polygon points="258.17 132.63 262.11 134.9 262.08 159.19 258.14 156.92 258.17 132.63" style="fill:#263238"></polygon></g></g><g id="freepik--Bag--inject-3"><g id="freepik--bag--inject-3"><polygon points="177.57 155.77 233.95 123.22 229.25 55.4 177.57 85.24 177.57 155.77" style="fill:#2FA6F8"></polygon><polygon points="177.57 155.77 233.95 123.22 229.25 55.4 177.57 85.24 177.57 155.77" style="fill:#fff;opacity:0.6000000000000001"></polygon><polygon points="177.57 85.24 177.57 79.81 163.47 77.1 215.15 47.26 219.85 55.4 229.25 55.4 177.57 85.24" style="fill:#2FA6F8"></polygon><polygon points="177.57 85.24 177.57 79.81 163.47 77.1 215.15 47.26 219.85 55.4 229.25 55.4 177.57 85.24" style="fill:#fff;opacity:0.30000000000000004"></polygon><polygon points="215.15 47.26 215.15 63.54 219.85 60.83 219.85 55.4 215.15 47.26" style="fill:#2FA6F8"></polygon><polygon points="215.15 47.26 215.15 63.54 219.85 60.83 219.85 55.4 215.15 47.26" style="opacity:0.1"></polygon><polygon points="229.25 55.4 219.85 55.4 219.85 60.83 229.25 55.4" style="fill:#2FA6F8"></polygon><polygon points="229.25 55.4 219.85 55.4 219.85 60.83 229.25 55.4" style="opacity:0.2"></polygon><polygon points="163.47 77.1 158.77 144.92 177.57 155.77 177.57 85.24 177.57 79.81 163.47 77.1" style="fill:#2FA6F8"></polygon><polygon points="163.47 77.1 158.77 144.92 177.57 155.77 177.57 85.24 177.57 79.81 163.47 77.1" style="opacity:0.1"></polygon><polygon points="177.57 79.81 168.17 150.34 177.57 155.77 177.57 79.81" style="fill:#2FA6F8"></polygon><polygon points="177.57 79.81 168.17 150.34 177.57 155.77 177.57 79.81" style="opacity:0.2"></polygon><polygon points="177.57 155.77 168.95 144.46 158.77 144.92 177.57 155.77" style="fill:#2FA6F8"></polygon><path d="M178.71,76.38c0,.92.64,1.3,1.44.84a3.22,3.22,0,0,0,1.45-2.51c0-.92-.65-1.3-1.45-.84A3.21,3.21,0,0,0,178.71,76.38Z" style="fill:#37474f"></path><path d="M197.94,65.53c0,.92.65,1.3,1.45.83a3.19,3.19,0,0,0,1.45-2.5c0-.92-.65-1.3-1.45-.84A3.21,3.21,0,0,0,197.94,65.53Z" style="fill:#37474f"></path><path d="M180.15,75.33a.49.49,0,0,1-.48-.48V63c0-5.17,4.42-11.92,9.86-15.06,3-1.75,5.9-2.09,7.89-.94,1.59.91,2.46,2.69,2.46,5V64a.49.49,0,0,1-.49.48.48.48,0,0,1-.48-.48V52c0-2-.69-3.44-2-4.18-1.68-1-4.21-.63-6.92.94-5.17,3-9.38,9.36-9.38,14.22V74.85A.49.49,0,0,1,180.15,75.33Z" style="fill:#37474f"></path><path d="M193,84.52c0,.92.65,1.29,1.45.83a3.19,3.19,0,0,0,1.45-2.5c0-.92-.65-1.3-1.45-.84A3.21,3.21,0,0,0,193,84.52Z" style="fill:#455a64"></path><path d="M212.26,73.67c0,.92.65,1.29,1.45.83a3.19,3.19,0,0,0,1.45-2.5c0-.93-.65-1.3-1.45-.84A3.19,3.19,0,0,0,212.26,73.67Z" style="fill:#455a64"></path><path d="M194.47,83.47A.48.48,0,0,1,194,83V71.13c0-5.16,4.42-11.91,9.86-15,3-1.75,5.9-2.09,7.89-.94,1.58.91,2.45,2.69,2.45,5v12a.48.48,0,0,1-.48.49.49.49,0,0,1-.49-.49v-12c0-2-.68-3.43-2-4.17-1.68-1-4.2-.63-6.92.94-5.17,3-9.37,9.36-9.37,14.21V83A.49.49,0,0,1,194.47,83.47Z" style="fill:#455a64"></path></g></g></svg>